<svg t="1722829470672" class="icon" viewBox="0 0 1462 1024" version="1.1"
  xmlns="http://www.w3.org/2000/svg" p-id="5201" width="48" height="48">
  <path
    d="M160.891301 663.384088a53.386659 53.386659 0 1 1-106.919583 0V360.615912a53.386659 53.386659 0 0 1 106.919583 0v302.768176z m1282.742466-302.768176a53.386659 53.386659 0 1 0-106.919583 0v302.768176a53.386659 53.386659 0 0 0 106.919583 0V360.615912zM481.503785 258.230538a53.386659 53.386659 0 0 0-106.919583 0v507.538924a53.386659 53.386659 0 1 0 106.919583 0V258.230538z m641.371233 0a53.386659 53.386659 0 0 0-106.846451 0v507.538924a53.386659 53.386659 0 0 0 106.846451 0V258.230538zM802.262534 53.459791a53.386659 53.386659 0 0 0-106.919583 0v917.080418a53.386659 53.386659 0 1 0 106.919583 0V53.459791z"
    p-id="5202" fill="#1D951B"></path>
</svg>