<svg id="图层_1" data-name="图层 1" xmlns="http://www.w3.org/2000/svg" viewBox="0 0 86.94 83.05"><defs><style>.cls-1{fill:#398f39;}</style></defs><path class="cls-1" d="M86.42,69.77a.61.61,0,0,1,0,.12,6.2,6.2,0,0,1,.36,3.56l-.16.73a3.27,3.27,0,0,1-1.59,2.15,3.24,3.24,0,0,1-1.82.24c-1.61-.28-2.33-1.69-2.69-3.14-1.27-5.09-2.47-10.2-3.65-15.31C75.41,51.56,74,45,72.44,38.42c-.2-.87-.12-2.33-1.09-2.41s-.83,1.37-1,2.15C68.7,44.57,67.15,51,65.55,57.41c-1,4.21-2.11,8.43-3.26,12.61-.58,2.1-1.83,3.12-3.76,3s-2.55-1.77-3-3.34c-.81-3-1.45-6-2.15-9C52.34,56,51.31,51.3,50.24,46.66,48.51,39.11,46.75,31.56,45,24c-.12-.54-.1-1.17-.77-1.22-.88-.07-.78.84-.85,1.3-1.13,7.08-2,14.2-3.32,21.24s-2.26,14-3.56,21c-.79,4.21-1.48,8.48-2,12.76-.36,3.34-2.9,4.91-5.29,3.32C28,81.54,27.62,80,27.36,78.54c-.89-5-2.29-9.75-3.4-14.64q-2.34-10.36-4.74-20.72c-.26-1.13-.32-3-1.17-3.08-1.11-.06-1.19,1.76-1.58,2.84-1.3,3.51-2.34,7.1-3.73,10.58-.81,2-1.71,3-3.69,3.13s-3.72.09-5.57,0A3.24,3.24,0,0,1,.13,54.1a3.11,3.11,0,0,1,1.41-3.69,8.14,8.14,0,0,1,4.19-.84c1.22,0,1.66-.49,2.05-1.59,2-5.69,3.88-11.46,6.05-17.11.7-1.81,1.12-3.75,1.95-5.53a3.15,3.15,0,0,1,3.38-1.95,2.94,2.94,0,0,1,2.6,2.51c1,4.21,2.11,8.43,3.08,12.66.88,3.82,1.64,7.67,2.69,11.46.87,3.15,1.49,6.38,2.2,9.58.11.52,0,1.32.59,1.33s.67-.81.75-1.36c1-5.9,1.85-11.82,2.82-17.71,1.59-9.61,3.22-19.2,4.81-28.8.53-3.18.93-6.38,1.51-9.55.34-1.85,1.88-3.9,3.49-3.45a4.34,4.34,0,0,1,2.82,2.76,33.78,33.78,0,0,1,1.6,5.66c2.14,9.3,4.24,18.61,6.39,27.9q1.86,8,3.83,16c.13.52.07,1.42.77,1.46s.69-.92.82-1.39c.78-2.86,1.33-5.8,2.16-8.65,2-7,3.3-14.13,5.4-21.08a33.21,33.21,0,0,1,.91-3.63c.73-1.71,2.06-2.07,3.69-2s2.22,1.26,2.53,2.54c1.44,5.78,2.79,11.58,4.16,17.38C80,42.31,81.3,47.58,82.52,52.87s2.41,10.68,3.62,16c.09.25.17.51.25.76l0,.11"/></svg>