<svg id="图层_1" data-name="图层 1" xmlns="http://www.w3.org/2000/svg" viewBox="0 0 113.39 113.39"><defs><style>.cls-1{fill:#398f39;}</style></defs><path class="cls-1" d="M99.65,84.94a.61.61,0,0,0,0,.12,6.2,6.2,0,0,1,.36,3.56l-.17.73a2.88,2.88,0,0,1-3.4,2.39c-1.62-.28-2.33-1.69-2.69-3.15-1.28-5.08-2.48-10.19-3.65-15.31-1.51-6.56-3-13.14-4.48-19.7-.21-.86-.13-2.33-1.09-2.41s-.83,1.37-1,2.16c-1.63,6.41-3.17,12.83-4.78,19.25-1,4.21-2.11,8.42-3.26,12.61-.57,2.09-1.82,3.12-3.76,3s-2.55-1.77-3-3.33c-.82-3-1.46-6-2.15-9-1.07-4.64-2.1-9.3-3.16-13.94Q60.86,50.5,58.25,39.18c-.12-.54-.1-1.18-.78-1.23-.88-.06-.77.85-.84,1.3-1.13,7.08-2,14.2-3.33,21.25s-2.25,14-3.56,21C49,85.72,48.27,90,47.8,94.28c-.37,3.33-2.91,4.91-5.29,3.32-1.33-.89-1.67-2.44-1.93-3.9C39.7,88.76,38.3,84,37.19,79.07q-2.36-10.36-4.74-20.73c-.27-1.12-.32-3-1.17-3.08-1.11,0-1.19,1.77-1.59,2.85-1.29,3.5-2.34,7.1-3.72,10.57-.81,2-1.71,3-3.69,3.13s-3.72.09-5.57,0a3.26,3.26,0,0,1-3.36-2.54,3.12,3.12,0,0,1,1.41-3.7A8.18,8.18,0,0,1,19,64.74c1.23,0,1.67-.5,2.06-1.59,2-5.7,3.88-11.46,6-17.11.69-1.81,1.12-3.75,1.94-5.53a3.18,3.18,0,0,1,3.39-2A3,3,0,0,1,35,41.07c1,4.21,2.1,8.42,3.08,12.66.88,3.82,1.63,7.67,2.68,11.45.88,3.15,1.5,6.38,2.21,9.59.11.51,0,1.31.58,1.33s.67-.82.76-1.37c1-5.9,1.85-11.81,2.82-17.71,1.58-9.6,3.22-19.2,4.81-28.8.53-3.18.93-6.38,1.51-9.54.34-1.85,1.87-3.9,3.49-3.45A4.3,4.3,0,0,1,59.74,18a33.51,33.51,0,0,1,1.6,5.66c2.15,9.29,4.25,18.6,6.4,27.9q1.85,8,3.83,16c.12.51.07,1.41.77,1.46s.69-.92.82-1.39c.78-2.87,1.33-5.8,2.15-8.66,2-7,3.31-14.13,5.41-21.07a29.34,29.34,0,0,1,.91-3.64c.73-1.7,2.05-2.06,3.69-2s2.21,1.25,2.53,2.53C89.29,40.59,90.63,46.4,92,52.19c1.25,5.28,2.51,10.56,3.73,15.84s2.42,10.69,3.62,16c.09.26.17.51.25.77l0,.11"/></svg>