<svg id="图层_1" data-name="图层 1" xmlns="http://www.w3.org/2000/svg" viewBox="0 0 242.4 30"><defs><style>.cls-1{fill:#fff;}</style></defs><path class="cls-1" d="M74.61,34c-.3-1.48-.71-2.95-.88-4.45-.67-6.05-1.28-12.1-1.91-18.16,0-.08-.07-.16-.35-.25-.23,1.62-.46,3.25-.68,4.88-.44,3.18-.85,6.36-1.33,9.54-.06.38-.46.72-.7,1.07-.23-.36-.61-.7-.66-1.09-.37-3-.69-6.09-1-9.14s-.59-5.82-.89-8.72c0-.15-.12-.3-.38-.44-.26,1.41-.54,2.83-.78,4.25-.49,2.81-.93,5.63-1.48,8.43a6.07,6.07,0,0,1-.94,1.64,5.53,5.53,0,0,1-.91-1.63c-.55-3.52-1-7.06-1.48-10.59a.7.7,0,0,0-.37-.53c-.21.78-.44,1.55-.63,2.34-.27,1.11-.5,2.22-.75,3.34a.46.46,0,0,1,0,.2l-1.32,1.67a12.77,12.77,0,0,1-1.42-1.43c-.33-.45-.45-1-.74-1.53s-.72-.56-1,0a13,13,0,0,0-.55,1.39,8.4,8.4,0,0,1-.67,1.78c-.31.47-.86,1-1.31,1s-1-.51-1.41-.95-.61-1.2-1-1.75c-.54-.75-1-.71-1.48,0-.21.29-.37.62-.6.88a1.61,1.61,0,0,1-2.73.08c-.91-1-1.32-.94-2.17.16-1.13,1.47-2.15,1.64-3.63.53a1,1,0,0,0-1.6.11c-.46.57-.73,1.3-1.2,1.87s-1,1.14-1.49,1.12-1-.74-1.35-1.26a9.69,9.69,0,0,1-.64-1.81c-.18-.44-.43-.85-.65-1.28l-.35-.05A14.56,14.56,0,0,1,30,17.18a12.75,12.75,0,0,1-1.47,1.37,6.55,6.55,0,0,1-1.28-1.66c-.47-1.38-.72-2.83-1.07-4.25-.09-.39-.24-.77-.36-1.15h-.33c-.21,1-.43,1.95-.63,2.93-.35,1.68-.68,3.36-1,5a1.45,1.45,0,0,1-.17.61c-.21.27-.49.65-.73.65s-.61-.39-.69-.67a17.75,17.75,0,0,1-.43-2.31q-.72-5.46-1.42-10.92a.54.54,0,0,0-.3-.39l-.78,5.78L17.89,23.54a.49.49,0,0,1,0,.21c-.3.47-.61.94-.92,1.41A5.23,5.23,0,0,1,16,23.73c-.51-2.11-.92-4.25-1.37-6.37a10.24,10.24,0,0,0-.32-1.24c-.47-1.3-.66-1.27-1.86-.63a9.66,9.66,0,0,1-3.19,1.13,44.78,44.78,0,0,1-4.92.13,2.41,2.41,0,0,1-.66-.21l0-.29A5.47,5.47,0,0,1,4.6,16a51.16,51.16,0,0,0,5.11-.32,8.4,8.4,0,0,0,2.78-1.23c.87-.52,1.58-.55,2,.4a17.06,17.06,0,0,1,1.08,3.33c.43,1.81.77,3.64,1.15,5.47h.3q.36-2.69.7-5.35c.57-4.31,1.12-8.63,1.72-12.93A4.88,4.88,0,0,1,20.17,4h.22a7.94,7.94,0,0,1,.68,1.74c.61,4.34,1.16,8.69,1.74,13,0,.13.09.24.34.37.35-1.76.71-3.51,1.07-5.27a15.73,15.73,0,0,1,.51-2.4,4.75,4.75,0,0,1,1-1.23c.32.39.8.73.93,1.17.49,1.68.85,3.39,1.29,5.07a12.45,12.45,0,0,0,.6,1.5c.38-.53.64-.83.83-1.17s.37-.85.61-1.24c.82-1.31,1.91-1.26,2.57.15.37.8.56,1.68.9,2.5a1.23,1.23,0,0,0,.7.68c.17,0,.51-.32.68-.56a20,20,0,0,1,1.23-2c.92-1.07,1.75-1.1,2.88-.26a1.42,1.42,0,0,0,2.3-.28c.13-.17.24-.35.38-.51a1.77,1.77,0,0,1,3-.09c.75.8,1.26.77,1.87-.1,1.45-2,2.62-1.95,3.71.32a2.12,2.12,0,0,0,.22.48c.3.32.63.61.94.91a4.3,4.3,0,0,0,.84-1c.34-.79.46-1.67.86-2.41.27-.51.86-1.14,1.33-1.16s1.05.6,1.39,1.07a14.45,14.45,0,0,1,1,2.17l.38,0A14.78,14.78,0,0,0,57.79,14c.46-1.79.84-3.61,1.34-5.39.11-.41.57-.72.87-1.07.29.4.79.77.86,1.2.5,3.14.92,6.28,1.37,9.42.07.51.18,1,.27,1.5h.29c.14-.69.31-1.39.43-2.09.62-3.58,1.2-7.17,1.88-10.74C65.23,6.13,65.75,5,66,5c1,.07.79,1.12.87,1.79.54,5.11,1,10.22,1.55,15.33,0,.45.15.88.23,1.33H69c.15-1,.33-2.09.47-3.14q.7-5.31,1.4-10.61A1.42,1.42,0,0,1,71,9.2c.19-.32.43-.61.65-.91.23.31.62.61.67.94.32,2.37.59,4.74.85,7.11.35,3.12.66,6.23,1,9.35a27.67,27.67,0,0,0,.77,4.62c.12-.92.25-1.83.35-2.75.46-4.33.88-8.67,1.38-13A5.51,5.51,0,0,1,77.38,13a5.45,5.45,0,0,1,.88,1.54c.55,3.23,1,6.48,1.5,9.72a14.35,14.35,0,0,0,.75,3.11,2.49,2.49,0,0,0,.25-.59c.48-3.53.93-7.06,1.4-10.59a5,5,0,0,1,.32-1.34c.13-.28.47-.65.71-.65a1.06,1.06,0,0,1,.71.65c.33,1.12.59,2.27.84,3.42.44,1.94.85,3.88,1.27,5.82l.32.05c.22-1,.48-1.93.66-2.9.32-1.68.51-3.38.91-5,.14-.56.74-1,1.13-1.5A9.44,9.44,0,0,1,90.43,16c.39.54.53,1.24.89,1.81.55.9,1.22.88,1.82,0a17.16,17.16,0,0,1,1-1.51,1.39,1.39,0,0,1,2.35.05c.66.84,1.16.87,1.92.14,1.42-1.37,2.59-1.21,3.59.49a3.12,3.12,0,0,0,.29.45c.74,1.08,1.62,1,2.14-.19.32-.75.62-1.53,1.6-1.42s1.3.89,1.58,1.69a8.3,8.3,0,0,0,.53,1.39,1.26,1.26,0,0,0,.75.63c.26,0,.6-.31.79-.56a12.31,12.31,0,0,1,.78-1.38c.36-.4.91-.91,1.33-.87s1,.63,1.14,1.1c.47,1.23.76,2.52,1.13,3.79.19.63.4,1.27.61,1.9l.29,0a6.52,6.52,0,0,0,.53-1.14c.38-1.45.65-2.93,1.09-4.36.14-.47.65-.82,1-1.23.41.38,1,.69,1.2,1.15a21.82,21.82,0,0,1,.79,2.32,12.5,12.5,0,0,0,.85,1.43c.31-.71.52-1.1.65-1.51.3-1,.57-2,.86-3,.22-.77.5-1.61,1.43-1.65s1.23.84,1.57,1.54.61,1.31.91,2l.35,0a6.71,6.71,0,0,0,.61-1,24.21,24.21,0,0,1,1-2.71c.26-.5.85-1.14,1.31-1.15s1,.61,1.39,1.07a9.12,9.12,0,0,1,.69,1.44c.45.84.94.85,1.36,0a18.26,18.26,0,0,1,.76-1.87,3.84,3.84,0,0,1,1.56-1.56c.83-.28,1.24.58,1.62,1.25.15.27.51.61.76.59s.61-.37.73-.66c.42-1,.67-2,1.16-3,.28-.53.9-1.22,1.37-1.22s1.07.72,1.33,1.25a24.26,24.26,0,0,1,.95,2.84c.12.36.31.69.59,1.31a9.64,9.64,0,0,0,.55-1.23c.36-1.45.69-2.92,1-4.37a2.74,2.74,0,0,1,.27-.92,10.64,10.64,0,0,1,1-1.13c.35.4.89.76,1,1.23.53,2.07.93,4.17,1.39,6.26.08.37.22.72.33,1.07l.34,0c.37-1.3.74-2.6,1.13-3.9a9.16,9.16,0,0,1,.64-1.8,1.38,1.38,0,0,1,1-.63c.27,0,.7.39.8.69.38,1.15.66,2.33,1,3.5s.49,2.09.75,3.13a3,3,0,0,0,.29.6h.3c.38-1.41.75-2.83,1.13-4.24a10,10,0,0,1,.51-1.63c.15-.32.51-.53.78-.79.27.29.72.54.78.87.26,1.36.43,2.75.59,4.13.51,4.45,1,8.91,1.72,13.46a2.4,2.4,0,0,0,.33-.66c.51-4.21,1-8.43,1.5-12.64a26.84,26.84,0,0,1,.45-2.85c.08-.35.49-.62.75-.93.27.29.71.53.8.87.5,1.93.92,3.88,1.38,5.82.11.46.27.91.4,1.37l.36,0c.2-.64.4-1.27.59-1.92.35-1.2.63-2.41,1-3.58a1.4,1.4,0,0,1,1-.78c.23,0,.7.5.77.84.49,2.37.9,4.76,1.33,7.14l.66,3.61h.35c.24-1.15.47-2.31.71-3.46.34-1.68.6-3.38,1.06-5a2.54,2.54,0,0,1,1.29-1.49c.28-.12,1,.56,1.41,1,.81,1,1.4,1,2.08,0,.42-.64.74-1.67,1.63-1.39.61.19,1.13,1,1.48,1.64s.59,1.67.94,2.49a4.5,4.5,0,0,0,.67.87,4,4,0,0,0,.68-.88c.32-.83.55-1.69.82-2.54a1.82,1.82,0,0,1,.18-.61c.33-.41.71-.77,1.08-1.15.28.41.72.78.82,1.23a34.13,34.13,0,0,1,.58,3.48c.38,2.83.73,5.66,1.11,8.48a5.25,5.25,0,0,0,.32.85,4.66,4.66,0,0,0,.3-.77q.54-6.78,1.09-13.55a5.21,5.21,0,0,1,.2-1.37,4.05,4.05,0,0,1,.69-.94c.24.32.63.6.71,1,.27,1.15.42,2.32.63,3.47q.87,4.73,1.75,9.44c0,.1.11.18.31.48.15-1.53.29-2.84.4-4.16q.6-7.25,1.19-14.5a7.4,7.4,0,0,1,.26-1.48c.07-.23.36-.58.5-.56a1,1,0,0,1,.7.5A10.43,10.43,0,0,1,198.33,9q1,5.81,2,11.59c.06.33.16.64.24.95h.3a6.31,6.31,0,0,0,.18-.72c.59-4.52,1.15-9,1.79-13.56a7.17,7.17,0,0,1,.83-1.81,6.38,6.38,0,0,1,.87,1.78c.5,3.1.89,6.21,1.32,9.32a1.84,1.84,0,0,0,.43,1l1.41-5.76a28.64,28.64,0,0,1,.74-2.9c.13-.37.58-.64.89-.95.26.35.69.67.74,1,.41,3,.74,5.94,1.09,8.91.16,1.38.31,2.75.48,4.12,0,.41.14.81.21,1.22l.29,0a6.86,6.86,0,0,0,.34-1c.57-2.43,1.09-4.87,1.7-7.28.12-.44.62-.77.94-1.15.31.39.82.74.91,1.18.44,2.16.77,4.34,1.16,6.51.23,1.32.5,2.64.81,4.27a5.2,5.2,0,0,0,.35-.8c.51-2.44,1-4.88,1.51-7.32a3.73,3.73,0,0,1,.42-1.09c.6-1.08,1.43-1.09,2.15-.1a9.32,9.32,0,0,0,1,1,6.5,6.5,0,0,0,1-1.28c.4-.91.6-1.91,1-2.8.19-.4.76-.92,1.1-.89a1.6,1.6,0,0,1,1,1.06c.52,2.21.93,4.46,1.38,6.69.14.71.3,1.43.45,2.14l.29,0c.21-.88.43-1.76.62-2.64.34-1.56.66-3.13,1-4.69a3.72,3.72,0,0,1,.36-1c.57-1,1.39-1.08,2.09-.14,1.85,2.49,2.35,2.56,4.79.61a12.18,12.18,0,0,1,5.2-2.84,7.74,7.74,0,0,1,1.8-.07c.19,0,.36.26.53.4-.16.14-.34.42-.49.41-2.95-.33-4.94,1.47-7,3.1s-3.74,1.49-5.28-.86a2.19,2.19,0,0,0-.63-.48c-.17.24-.45.47-.51.74-.41,1.74-.76,3.49-1.13,5.23a13.31,13.31,0,0,1-.52,2.18,4.64,4.64,0,0,1-1,1.14c-.32-.39-.79-.73-.92-1.17-.29-1-.37-2-.57-2.94q-.57-2.78-1.19-5.53a4.52,4.52,0,0,0-.46-.84c-.36,1-.61,1.76-.89,2.5a9.83,9.83,0,0,1-.73,1.77,1.39,1.39,0,0,1-2.51.1,7.57,7.57,0,0,0-.88-.82,4,4,0,0,0-.7,1.11c-.55,2.47-1.05,4.95-1.56,7.42a.94.94,0,0,1-.07.31c-.31.45-.63.89-.94,1.33-.33-.43-.85-.81-.94-1.29-.47-2.37-.81-4.76-1.23-7.15-.19-1.11-.46-2.21-.7-3.32l-.28,0c-.35,1.48-.72,3-1.07,4.46s-.65,3.07-1.07,4.58c-.1.36-.55.64-.84.95-.27-.33-.73-.64-.79-1-.29-2-.47-3.95-.71-5.93-.35-2.79-.72-5.58-1.08-8.37,0,0-.1-.08-.3-.23-.25,1-.5,1.86-.72,2.76-.4,1.67-.72,3.35-1.21,5a5.94,5.94,0,0,1-1.06,1.55,5.22,5.22,0,0,1-.94-1.63c-.48-2.95-.85-5.93-1.25-8.89a.87.87,0,0,0-.27-.57c-.1.47-.24.93-.31,1.41-.53,3.88-1.05,7.76-1.59,11.64a13.4,13.4,0,0,1-.46,2c-.06.19-.36.49-.47.46a.86.86,0,0,1-.6-.49c-.3-1-.57-2.06-.77-3.1-.61-3.29-1.17-6.59-1.76-9.89a6.45,6.45,0,0,0-.29-.66,12,12,0,0,0-.3,1.37c-.38,4.77-.75,9.53-1.14,14.3-.11,1.31-.22,2.63-.43,3.93-.06.37-.48.69-.73,1-.24-.33-.62-.63-.69-1-.55-2.83-1-5.68-1.55-8.52-.25-1.4-.53-2.8-.79-4.2h-.31a2.35,2.35,0,0,0-.2.6c-.29,3.58-.56,7.17-.85,10.76-.14,1.63-.28,3.27-.49,4.89,0,.39-.41.74-.63,1.11-.25-.35-.65-.68-.71-1.06-.39-2.5-.71-5-1.05-7.52s-.7-5.09-1.06-7.63c0-.13-.1-.25-.42-.44l-.72,2.07a18.62,18.62,0,0,1-.77,2.21c-.18.35-.63.79-1,.8a1.47,1.47,0,0,1-1.05-.72,18.24,18.24,0,0,1-.92-2.5,5.5,5.5,0,0,0-.31-1c-.2-.35-.49-.82-.8-.88s-.67.38-.95.66-.38.61-.63.86a1.54,1.54,0,0,1-2.56-.13c-.28-.35-.54-.71-1-1.32a11.14,11.14,0,0,0-.65,1.64c-.57,2.69-1.09,5.38-1.63,8.07a1.32,1.32,0,0,1-.17.61c-.23.29-.54.71-.8.7a1.11,1.11,0,0,1-.75-.74c-.3-1.18-.5-2.37-.71-3.57-.39-2.25-.75-4.5-1.14-6.75a1.86,1.86,0,0,0-.57-1c-.35,1.27-.7,2.54-1.06,3.8a8.81,8.81,0,0,1-.5,1.63c-.2.37-.66.92-.91.88a1.53,1.53,0,0,1-1-.92c-.42-1.36-.7-2.76-1-4.15-.19-.8-.36-1.6-.54-2.4l-.36,0L163,19.12q-.81,6.48-1.6,13a1.24,1.24,0,0,1-.12.52,7.7,7.7,0,0,1-.66.75c-.2-.26-.55-.5-.6-.78-.23-1.37-.4-2.76-.56-4.14-.58-5-1.14-10-1.71-15a1.19,1.19,0,0,0-.35-.71c-.38,1.46-.73,2.93-1.15,4.37-.23.79-.25,2-1.29,2s-1.15-1.2-1.36-2c-.43-1.62-.75-3.26-1.13-4.89a10.38,10.38,0,0,0-.39-1.06l-.32,0-1,3.38a12.64,12.64,0,0,1-.65,2c-.19.4-.72,1-1,.92a1.76,1.76,0,0,1-1-1,33.54,33.54,0,0,1-.77-3.33c-.25-1.15-.47-2.3-.73-3.45a4.54,4.54,0,0,0-.48-.91c-.44,1.85-.81,3.42-1.2,5a9.51,9.51,0,0,1-.58,1.83c-.47,1-1.33,1-1.83.05a29.13,29.13,0,0,1-1-2.8c-.24-.65-.52-1.28-.78-1.92l-.36,0c-.26.52-.54,1-.76,1.54a23.17,23.17,0,0,1-1.14,2.76c-.72,1.23-1.7,1.17-2.51,0a11.82,11.82,0,0,0-1-1.14,13.5,13.5,0,0,0-1,1.41c-.34.62-.51,1.35-.88,1.94a1.28,1.28,0,0,1-2.38,0c-.34-.54-.5-1.18-.82-1.73A1.27,1.27,0,0,0,129,15c-.17,0-.5.36-.6.62a25,25,0,0,1-1,2.72c-.29.57-.9,1.34-1.39,1.35s-1-.76-1.46-1.29A9.53,9.53,0,0,1,124,17c-.13-.23-.45-.57-.57-.53a1,1,0,0,0-.61.61c-.34,1-.6,2-.89,3s-.53,2-1.64,2c-.93-.07-1.25-1.09-1.48-2a17.76,17.76,0,0,0-.89-2.29l-.49,0c-.23.78-.5,1.56-.7,2.35-.27,1.07-.41,2.17-.76,3.21-.14.44-.64,1-1,1s-.94-.51-1.09-.92c-.46-1.31-.76-2.67-1.13-4a5.4,5.4,0,0,0-.37-1.22,3.76,3.76,0,0,0-.75-.8,5.4,5.4,0,0,0-.7.74c-.17.26-.15.66-.35.88-.46.51-1,1.28-1.5,1.31s-1.08-.73-1.5-1.25a10.23,10.23,0,0,1-.75-1.52c-.2-.36-.48-.69-.85-1.21-.45.58-.83,1-1.15,1.51-.89,1.39-1.84,1.46-2.85.16a10.81,10.81,0,0,0-.72-.92c-.91-.94-1.35-.94-2.29,0s-1.77,1-2.74,0-1.37-.78-2,.19c-.18.27-.24.63-.46.83-.47.44-1,1.13-1.51,1.1S91,18.49,90.61,18a14.47,14.47,0,0,1-1-1.88c-.12-.21-.41-.32-.62-.48a2.43,2.43,0,0,0-.37.61c-.46,2.34-.9,4.68-1.34,7-.15.79-.06,1.9-1.08,1.95s-1-1.07-1.15-1.79c-.54-2.32-1-4.65-1.51-7-.06-.27-.15-.53-.22-.79l-.29,0c-.22,1.33-.48,2.65-.65,4-.37,2.75-.64,5.52-1,8.26a6.7,6.7,0,0,1-.89,1.8,6.42,6.42,0,0,1-.93-1.77c-.52-3.13-.92-6.27-1.39-9.41a15.29,15.29,0,0,0-.74-3.06,4.81,4.81,0,0,0-.18.7c-.45,4.33-.88,8.66-1.33,13-.11,1.1-.18,2.21-.38,3.29a7.86,7.86,0,0,1-.7,1.61Z" transform="translate(-3.65 -4)"/></svg>