<svg viewBox="0 0 297.74 258.17" xmlns="http://www.w3.org/2000/svg" xmlns:xlink="http://www.w3.org/1999/xlink"><clipPath id="a" transform="translate(-1328.25 -455.75)"><path d="m1328.75 448.9h284v257h-284z"/></clipPath><g clip-path="url(#a)"><path d="m1484 712.7q-70 0-140 0c-1.71 0-2-.34-2-2q.09-126.45 0-252.91c0-1.71.34-2 2-2q139.95.08 279.91 0c1.71 0 2 .33 2 2q-.08 126.46 0 252.91c0 1.71-.33 2-2 2q-69.91-.04-139.91 0zm-58.18-120.88c-2.28.49-4.72.07-6.91 1.16a4.28 4.28 0 0 0 -3.78 4.36 4.88 4.88 0 0 0 5 4.56 68.31 68.31 0 0 0 8.22 0 5.47 5.47 0 0 0 5.17-4.15c1.87-5.51 4-10.94 6.1-16.37.27-.7.44-1.86 1.38-1.89 1.39-.05.68 1.43 1.17 2.11a5.73 5.73 0 0 1 .59 1.89q3.78 15.18 7.55 30.37c1.56 6.3 3 12.63 4.61 18.91.77 3 3.05 4.85 5.42 4.47a5.11 5.11 0 0 0 4.32-4.47c.76-4 1.63-7.92 2.07-11.92.86-7.7 2.58-15.25 3.9-22.86 1.51-8.74 2.79-17.53 4.61-26.22 1-4.51 1.42-9.11 2.23-13.65.11-.63-.05-1.88 1.21-1.78 1 .07.93.94 1.11 1.68 1.25 5.19 2.55 10.38 3.83 15.56q4.1 16.75 8.2 33.5c1 4.07 1.9 8.17 3 12.19.62 2.15 1.65 4.39 4.24 4.63 2.75.27 4.54-1.13 5.4-4 1.66-5.59 3.19-11.21 4.69-16.84 2.3-8.65 4.5-17.33 6.82-26 .29-1.1 0-3.09 1.44-3s1.31 2.1 1.6 3.26c2.35 9.32 4.53 18.68 6.84 28 1.51 6.14 3.31 12.22 4.66 18.39a5.71 5.71 0 0 0 3.63 4.57c2 .74 3.85-.32 5-2.22a7.49 7.49 0 0 0 0-6.18.39.39 0 0 0 -.07-.35 1 1 0 0 0 -.41-1.21c-1.77-7.93-4-15.76-5.87-23.65-3.43-14-6.87-28.09-10.52-42.08-.54-2.09-1.3-3.92-3.92-4-3.12-.09-4.66.87-5.56 3.76-.41 1.34-.53 2.75-.9 4.1-2.56 9.41-5.11 18.82-7.74 28.2-1.11 3.95-1.68 8-3.2 11.87-.22.56 0 1.55-.91 1.59-1.08 0-.93-1.09-1.09-1.68-1.39-5.32-2.69-10.67-4-16q-3.86-15.42-7.71-30.84c-1.62-6.45-3.21-12.92-5-19.35-.83-3-2.68-4.28-5.33-4.11-2.83.18-3.65 2.28-4.1 4.54-.77 3.78-1.39 7.59-2 11.39q-2.4 13.85-4.77 27.7-1.62 9.48-3.25 18.95c-1 5.68-2 11.36-3 17-.11.62-.11 1.69-1 1.66-.77 0-.73-.94-.88-1.58-1.15-4.8-2.3-9.59-3.51-14.37-.76-3-1.65-6-2.41-9-1.86-7.32-3.57-14.68-5.56-22-.92-3.36-4.64-4.33-7.34-2.16a6.4 6.4 0 0 0 -1.74 2.94q-3.48 9.21-6.93 18.42c-1.62 4.04-3.11 8.12-4.61 12.2z" fill="#fefefe" transform="translate(-1328.25 -455.75)"/><path d="m1539.15 626c-1.17 1.9-3 3-5 2.22a5.71 5.71 0 0 1 -3.63-4.57c-1.35-6.17-3.15-12.25-4.66-18.39-2.31-9.33-4.49-18.69-6.84-28-.29-1.16-.11-3.21-1.6-3.26s-1.15 2-1.44 3c-2.32 8.64-4.52 17.32-6.82 26-1.5 5.63-3 11.25-4.69 16.84-.86 2.9-2.65 4.3-5.4 4-2.59-.24-3.62-2.48-4.24-4.63-1.15-4-2-8.12-3-12.19q-4.1-16.76-8.2-33.5c-1.28-5.18-2.58-10.37-3.83-15.56-.18-.74-.15-1.61-1.11-1.68-1.26-.1-1.1 1.15-1.21 1.78-.81 4.54-1.28 9.14-2.23 13.65-1.82 8.69-3.1 17.48-4.61 26.22-1.32 7.61-3 15.16-3.9 22.86-.44 4-1.31 8-2.07 11.92a5.11 5.11 0 0 1 -4.32 4.47c-2.37.38-4.65-1.5-5.42-4.47-1.62-6.28-3-12.61-4.61-18.91q-3.75-15.2-7.55-30.37a5.73 5.73 0 0 0 -.59-1.89c-.49-.68.22-2.16-1.17-2.11-.94 0-1.11 1.19-1.38 1.89-2.1 5.43-4.23 10.86-6.1 16.37a5.47 5.47 0 0 1 -5.17 4.15 68.31 68.31 0 0 1 -8.22 0 4.88 4.88 0 0 1 -5-4.56 4.28 4.28 0 0 1 3.78-4.36h4.72c.93 0 1.88 0 2.19-1.13 1.5-4.08 3-8.16 4.5-12.23q3.45-9.21 6.93-18.42a6.4 6.4 0 0 1 1.74-2.94c2.7-2.17 6.42-1.2 7.34 2.16 2 7.28 3.7 14.64 5.56 22 .76 3 1.65 6 2.41 9 1.21 4.78 2.36 9.57 3.51 14.37.15.64.11 1.55.88 1.58.94 0 .94-1 1-1.66 1-5.67 2-11.35 3-17q1.63-9.46 3.25-18.95 2.38-13.85 4.77-27.7c.65-3.8 1.27-7.61 2-11.39.45-2.26 1.27-4.36 4.1-4.54 2.65-.17 4.5 1.08 5.33 4.11 1.77 6.43 3.36 12.9 5 19.35q3.87 15.42 7.71 30.84c1.33 5.34 2.63 10.69 4 16 .16.59 0 1.72 1.09 1.68.91 0 .69-1 .91-1.59 1.52-3.83 2.09-7.92 3.2-11.87 2.63-9.38 5.18-18.79 7.74-28.2.37-1.35.49-2.76.9-4.1.9-2.89 2.44-3.85 5.56-3.76 2.62.08 3.38 1.91 3.92 4 3.65 14 7.09 28 10.52 42.08 1.92 7.89 4.1 15.72 5.87 23.65a1.21 1.21 0 0 0 .41 1.21.39.39 0 0 1 .07.35c.09 2.07.09 4.18.1 6.18z" fill="#359535" transform="translate(-1328.25 -455.75)"/><path d="m1425.81 591.82c-.31 1.18-1.26 1.13-2.19 1.13h-4.72c2.19-1.06 4.63-.64 6.91-1.13z" fill="#597b59" transform="translate(-1328.25 -455.75)"/><g fill="#4f714f"><path d="m1539.15 626c0-2.06 0-4.12 0-6.18a7.49 7.49 0 0 1 0 6.18z" transform="translate(-1328.25 -455.75)"/><path d="m1539.06 619.48a1.21 1.21 0 0 1 -.41-1.21 1 1 0 0 1 .41 1.21z" transform="translate(-1328.25 -455.75)"/></g></g><path d="m0 .17h285v258h-285z" fill="none"/></svg>